<svg width="512" height="512" viewBox="0 0 512 512" xmlns="http://www.w3.org/2000/svg">
  <defs>
    <!-- Gradient for spiral elements -->
    <linearGradient id="spiralGradient1" x1="0%" y1="0%" x2="100%" y2="100%">
      <stop offset="0%" style="stop-color:#2563eb;stop-opacity:0.9" />
      <stop offset="50%" style="stop-color:#7c3aed;stop-opacity:0.8" />
      <stop offset="100%" style="stop-color:#dc2626;stop-opacity:0.7" />
    </linearGradient>
    
    <linearGradient id="spiralGradient2" x1="100%" y1="0%" x2="0%" y2="100%">
      <stop offset="0%" style="stop-color:#059669;stop-opacity:0.8" />
      <stop offset="50%" style="stop-color:#0891b2;stop-opacity:0.7" />
      <stop offset="100%" style="stop-color:#4338ca;stop-opacity:0.6" />
    </linearGradient>
    
    <linearGradient id="spiralGradient3" x1="50%" y1="0%" x2="50%" y2="100%">
      <stop offset="0%" style="stop-color:#f59e0b;stop-opacity:0.7" />
      <stop offset="50%" style="stop-color:#ef4444;stop-opacity:0.6" />
      <stop offset="100%" style="stop-color:#8b5cf6;stop-opacity:0.5" />
    </linearGradient>
    
    <!-- Background gradient -->
    <radialGradient id="bgGradient" cx="50%" cy="50%" r="70%">
      <stop offset="0%" style="stop-color:#f8fafc;stop-opacity:1" />
      <stop offset="100%" style="stop-color:#e2e8f0;stop-opacity:1" />
    </radialGradient>
    
    <!-- Center gradient -->
    <radialGradient id="centerGradient" cx="50%" cy="50%" r="50%">
      <stop offset="0%" style="stop-color:#ffffff;stop-opacity:1" />
      <stop offset="100%" style="stop-color:#e2e8f0;stop-opacity:1" />
    </radialGradient>
    
    <!-- Shadow filter -->
    <filter id="shadow" x="-50%" y="-50%" width="200%" height="200%">
      <feDropShadow dx="0" dy="4" stdDeviation="12" flood-color="#000000" flood-opacity="0.15"/>
    </filter>
  </defs>
  
  <!-- Background -->
  <circle cx="256" cy="256" r="240" fill="url(#bgGradient)" filter="url(#shadow)"/>
  
  <!-- First spiral element -->
  <path d="M 256 50 
           C 370 50 462 142 462 256 
           C 462 370 370 462 256 462 
           C 142 462 50 370 50 256 
           C 50 142 142 50 256 50 
           C 320 50 370 100 370 164 
           C 370 228 320 278 256 278 
           C 192 278 142 228 142 164"
        fill="none" 
        stroke="url(#spiralGradient1)" 
        stroke-width="28" 
        stroke-linecap="round"/>
  
  <!-- Second spiral element (rotated) -->
  <g transform="rotate(120 256 256)">
    <path d="M 256 50 
             C 370 50 462 142 462 256 
             C 462 370 370 462 256 462 
             C 142 462 50 370 50 256 
             C 50 142 142 50 256 50 
             C 320 50 370 100 370 164 
             C 370 228 320 278 256 278 
             C 192 278 142 228 142 164"
          fill="none" 
          stroke="url(#spiralGradient2)" 
          stroke-width="24" 
          stroke-linecap="round"
          opacity="0.8"/>
  </g>
  
  <!-- Third spiral element (rotated) -->
  <g transform="rotate(240 256 256)">
    <path d="M 256 50 
             C 370 50 462 142 462 256 
             C 462 370 370 462 256 462 
             C 142 462 50 370 50 256 
             C 50 142 142 50 256 50 
             C 320 50 370 100 370 164 
             C 370 228 320 278 256 278 
             C 192 278 142 228 142 164"
          fill="none" 
          stroke="url(#spiralGradient3)" 
          stroke-width="20" 
          stroke-linecap="round"
          opacity="0.6"/>
  </g>
  
  <!-- Inner spiral details -->
  <circle cx="256" cy="256" r="80" fill="none" stroke="url(#spiralGradient1)" stroke-width="12" opacity="0.4"/>
  <circle cx="256" cy="256" r="50" fill="none" stroke="url(#spiralGradient2)" stroke-width="8" opacity="0.3"/>
  
  <!-- Center circle -->
  <circle cx="256" cy="256" r="30" fill="url(#centerGradient)" stroke="url(#spiralGradient1)" stroke-width="3"/>
  
  <!-- Subtle outer ring -->
  <circle cx="256" cy="256" r="240" fill="none" stroke="rgba(100,116,139,0.2)" stroke-width="4"/>
</svg>
