<svg xmlns="http://www.w3.org/2000/svg" width="32" height="32" viewBox="0 0 32 32">
  <defs>
    <radialGradient id="bg32" cx="50%" cy="50%" r="50%">
      <stop offset="0%" style="stop-color:#f0f9ff"/>
      <stop offset="100%" style="stop-color:#dbeafe"/>
    </radialGradient>
    <linearGradient id="spiral1_32" x1="0%" y1="0%" x2="100%" y2="100%">
      <stop offset="0%" style="stop-color:#3b82f6"/>
      <stop offset="100%" style="stop-color:#ef4444"/>
    </linearGradient>
    <linearGradient id="spiral2_32" x1="100%" y1="0%" x2="0%" y2="100%">
      <stop offset="0%" style="stop-color:#10b981"/>
      <stop offset="100%" style="stop-color:#8b5cf6"/>
    </linearGradient>
    <radialGradient id="center32" cx="50%" cy="50%" r="30%">
      <stop offset="0%" style="stop-color:#fbbf24"/>
      <stop offset="100%" style="stop-color:#f59e0b"/>
    </radialGradient>
  </defs>
  
  <!-- Background -->
  <circle cx="16" cy="16" r="16" fill="url(#bg32)"/>
  
  <!-- First spiral (rotated 0°) -->
  <g transform="rotate(0 16 16)">
    <path d="M16,4 Q24,8 20,16 Q12,24 16,20 Q20,12 16,16 Q14,18 16,16" 
          fill="none" stroke="url(#spiral1_32)" stroke-width="1.5" opacity="0.8"/>
  </g>
  
  <!-- Second spiral (rotated 120°) -->
  <g transform="rotate(120 16 16)">
    <path d="M16,4 Q24,8 20,16 Q12,24 16,20 Q20,12 16,16 Q14,18 16,16" 
          fill="none" stroke="url(#spiral2_32)" stroke-width="1.5" opacity="0.8"/>
  </g>
  
  <!-- Third spiral (rotated 240°) -->
  <g transform="rotate(240 16 16)">
    <path d="M16,4 Q24,8 20,16 Q12,24 16,20 Q20,12 16,16 Q14,18 16,16" 
          fill="none" stroke="url(#spiral1_32)" stroke-width="1.5" opacity="0.6"/>
  </g>
  
  <!-- Center highlight -->
  <circle cx="16" cy="16" r="2" fill="url(#center32)" opacity="0.9"/>
</svg>
