<svg width="180" height="180" viewBox="0 0 180 180" xmlns="http://www.w3.org/2000/svg">
  <defs>
    <linearGradient id="spiralGrad1" x1="0%" y1="0%" x2="100%" y2="100%">
      <stop offset="0%" style="stop-color:#2563eb;stop-opacity:0.9" />
      <stop offset="100%" style="stop-color:#dc2626;stop-opacity:0.7" />
    </linearGradient>
    <linearGradient id="spiralGrad2" x1="100%" y1="0%" x2="0%" y2="100%">
      <stop offset="0%" style="stop-color:#059669;stop-opacity:0.8" />
      <stop offset="100%" style="stop-color:#4338ca;stop-opacity:0.6" />
    </linearGradient>
    <radialGradient id="bg" cx="50%" cy="50%" r="70%">
      <stop offset="0%" style="stop-color:#f8fafc;stop-opacity:1" />
      <stop offset="100%" style="stop-color:#e2e8f0;stop-opacity:1" />
    </radialGradient>
  </defs>
  
  <rect width="180" height="180" rx="30" fill="url(#bg)"/>
  
  <path d="M 90 20 C 130 20 160 50 160 90 C 160 130 130 160 90 160 C 50 160 20 130 20 90 C 20 50 50 20 90 20 C 112 20 130 38 130 60 C 130 82 112 100 90 100 C 68 100 50 82 50 60"
        fill="none" stroke="url(#spiralGrad1)" stroke-width="9" stroke-linecap="round"/>
  
  <g transform="rotate(120 90 90)">
    <path d="M 90 20 C 130 20 160 50 160 90 C 160 130 130 160 90 160 C 50 160 20 130 20 90 C 20 50 50 20 90 20 C 112 20 130 38 130 60 C 130 82 112 100 90 100 C 68 100 50 82 50 60"
          fill="none" stroke="url(#spiralGrad2)" stroke-width="7" stroke-linecap="round" opacity="0.8"/>
  </g>
  
  <g transform="rotate(240 90 90)">
    <path d="M 90 20 C 130 20 160 50 160 90 C 160 130 130 160 90 160 C 50 160 20 130 20 90 C 20 50 50 20 90 20 C 112 20 130 38 130 60 C 130 82 112 100 90 100 C 68 100 50 82 50 60"
          fill="none" stroke="url(#spiralGrad1)" stroke-width="5" stroke-linecap="round" opacity="0.6"/>
  </g>
  
  <circle cx="90" cy="90" r="10" fill="white" stroke="url(#spiralGrad1)" stroke-width="2"/>
</svg>180" height="180" viewBox="0 0 180 180" xmlns="http://www.w3.org/2000/svg">
  <defs>
    <linearGradient id="appleBg" x1="0%" y1="0%" x2="100%" y2="100%">
      <stop offset="0%" style="stop-color:#667eea"/>
      <stop offset="50%" style="stop-color:#764ba2"/>
      <stop offset="100%" style="stop-color:#f093fb"/>
    </linearGradient>
  </defs>
  <rect width="180" height="180" rx="40" fill="url(#appleBg)"/>
  <text x="90" y="110" font-family="Arial, sans-serif" font-size="64" font-weight="bold" text-anchor="middle" fill="white">JS</text>
  <circle cx="90" cy="90" r="75" fill="none" stroke="rgba(255,255,255,0.2)" stroke-width="2"/>
</svg>
